<?xml version="1.0" standalone="no"?><!DOCTYPE svg PUBLIC "-//W3C//DTD SVG 1.1//EN" "http://www.w3.org/Graphics/SVG/1.1/DTD/svg11.dtd"><svg t="1558430156863" class="icon" style="" viewBox="0 0 1024 1024" version="1.1" xmlns="http://www.w3.org/2000/svg" p-id="3872" xmlns:xlink="http://www.w3.org/1999/xlink" width="128" height="128"><defs><style type="text/css"></style></defs><path d="M701.7 370.6H544.8c-6.5 0-12.8 2.4-17.4 6.8-4.6 4.3-7.2 10.2-7.2 16.3v24.4c0 6.1 2.6 12 7.2 16.3 4.6 4.3 10.9 6.8 17.4 6.8h156.9c13.6 0 24.6-10.3 24.6-23.1v-24.4c0-12.7-11.1-23.1-24.6-23.1zM408.4 562.9c0-8.9-3.7-17.4-10.4-23.6-6.7-6.3-15.7-9.8-25.2-9.8h-56.2c-9.4 0-18.5 3.5-25.2 9.8-6.7 6.3-10.4 14.8-10.4 23.6v3.5c0 18.4 15.9 33.4 35.6 33.4h56.2c19.6 0 35.6-15 35.6-33.4v-3.5zM464.8 831c-4 0-11.2 0.1-12.1 0.1l-133.8-1c-61.6 0-76.8-10.7-76.8-70.9V264.4c0-60.2 15.2-70.9 76.8-70.9l-24.7-0.6 408.7 0.6c58.3 0 74.8 10.1 76.4 62.1l0.1 203.3c0 19.5 19.8 35.3 40.5 35.3s36.5-15.8 36.5-35.3c0-2.9 0-5.7-0.2-8.3l-0.1-261.1c-1.8-37.6-35.1-67.6-76.1-67.7l-541.3 0.2c-40.8 1.7-73.4 32.5-73.4 70.6v37.7h-0.3l0.3 563h0.1V831c0 39.2 34.4 70.9 76.8 70.9h38.4v0.3L464 902c20.7 0 37.5-18 37.5-37.5s-16-33.5-36.7-33.5z m261.4-543.1c0-6.1-2.6-12-7.2-16.3-4.6-4.3-10.9-6.8-17.4-6.8H544.8c-6.5 0-12.8 2.4-17.4 6.8-4.6 4.3-7.2 10.2-7.2 16.3v24.4c0 6.1 2.6 12 7.2 16.3 4.6 4.3 10.9 6.8 17.4 6.8h156.9c13.6 0 24.6-10.3 24.6-23.1v-24.4z m124.4 544.7l-60.9-57.4c13.9-16 25.3-34 32.9-53.8 0.3-0.6 0.5-1.3 0.8-2 6.9-18.8 10.9-39 10.9-60 0-101.1-87.1-183-194.4-183s-194.4 81.9-194.4 183 87.1 183 194.4 183c33.4 0 64.6-8.2 91.9-22.1l65.9 62.1c5.3 5 12.4 7.7 19.9 7.7 7.5 0 14.6-2.8 19.9-7.7l13.2-12.5c10.9-10.2 10.9-27-0.1-37.3zM642 776.3c-67.2 0-121.7-51.3-121.7-114.7 0-63.3 54.5-114.7 121.7-114.7s121.7 51.3 121.7 114.7c0 63.4-54.5 114.7-121.7 114.7zM482.8 412.6V311c0-25.5-22-46.2-49.2-46.2H325.9c-27.2 0-49.2 20.7-49.2 46.2v101.7c0 25.5 22 46.2 49.2 46.2h107.7c27.2-0.1 49.2-20.8 49.2-46.3zM372.9 670.1h-56.2c-9.4 0-18.5 3.5-25.2 9.8-6.7 6.3-10.4 14.8-10.4 23.6v3.5c0 8.9 3.7 17.4 10.4 23.6 6.7 6.3 15.7 9.8 25.2 9.8h56.2c9.4 0 18.5-3.5 25.2-9.8 6.7-6.3 10.4-14.8 10.4-23.6v-3.5c0-8.9-3.7-17.4-10.4-23.6-6.8-6.3-15.8-9.8-25.2-9.8z m0 0" p-id="3873"></path></svg>