<?xml version="1.0" standalone="no"?><!DOCTYPE svg PUBLIC "-//W3C//DTD SVG 1.1//EN" "http://www.w3.org/Graphics/SVG/1.1/DTD/svg11.dtd"><svg t="1558430150362" class="icon" style="" viewBox="0 0 1024 1024" version="1.1" xmlns="http://www.w3.org/2000/svg" p-id="3762" xmlns:xlink="http://www.w3.org/1999/xlink" width="128" height="128"><defs><style type="text/css"></style></defs><path d="M665.5 460.4c66.2 0 124.1 24.8 165.4 66.2V208.1c0-24.8-16.5-41.4-41.4-41.4h-86.8c4.1 8.3 4.1 12.4 4.1 20.7 0 33.1-28.9 62-62 62H355.4c-33.1 0-62-28.9-62-62 0-8.3 0-12.4 4.1-20.7h-86.8c-24.8 0-41.4 20.7-41.4 41.4v616.2c0 24.8 16.5 41.4 41.4 41.4h281.2c-41.4-41.4-66.2-99.2-66.2-165.4 0-132.4 107.5-239.9 239.8-239.9zM326.4 348.7H678c16.5 0 33.1 12.4 33.1 33.1 0 16.5-12.4 33.1-33.1 33.1H326.4c-16.5 0-33.1-12.4-33.1-33.1 0.1-16.6 12.5-33.1 33.1-33.1z m12.4 359.8h-12.4c-16.5 0-28.9-12.4-28.9-33.1 0-16.5 12.4-33.1 28.9-33.1h12.4c16.5 0 28.9 12.4 28.9 33.1 0.1 16.5-12.3 33.1-28.9 33.1z m62.1-148.9h-74.4c-16.5 0-33.1-12.4-33.1-33.1 0-16.5 12.4-33.1 33.1-33.1h74.4c16.5 0 33.1 12.4 33.1 33.1 0 20.7-16.6 33.1-33.1 33.1z m0 0" p-id="3763"></path><path d="M388.5 204h256.4c20.7 0 37.2-16.5 37.2-37.2 0-20.7-16.5-37.2-37.2-37.2H388.5c-20.7 0-37.2 16.5-37.2 37.2 0 20.6 16.5 37.2 37.2 37.2z m421.8 471.4h12.4c-24.8 0-28.9-12.4-12.4-28.9l-8.3 8.3c16.5-16.5 16.5-41.4 0-57.9l-4.1-4.1c-16.5-16.5-41.4-16.5-57.9 0l8.3-8.3c-16.5 16.5-28.9 12.4-28.9-12.4v12.4c0-24.8-16.5-41.4-41.4-41.4h-4.1c-24.8 0-41.4 16.5-41.4 41.4V572c0 24.8-12.4 28.9-28.9 12.4l8.3 8.3c-16.5-16.5-41.4-16.5-57.9 0l-4.1 4.1c-16.5 16.5-16.5 41.4 0 57.9l-8.3-8.3c16.5 16.5 12.4 28.9-12.4 28.9h12.4c-24.8 0-41.4 20.7-41.4 41.4v4.1c0 20.7 16.5 41.4 41.4 41.4h-12.4c24.8 0 28.9 12.4 12.4 28.9l8.3-8.3c-16.5 16.5-16.5 41.4 0 57.9l4.1 4.1c16.5 16.5 41.4 16.5 57.9 0l-8.3 8.3c16.5-16.5 28.9-12.4 28.9 12.4v-12.4c0 24.8 16.5 41.4 41.4 41.4h4.1c24.8 0 41.4-16.5 41.4-41.4v12.4c0-24.8 12.4-28.9 28.9-12.4l-8.3-8.3c16.5 16.5 41.4 16.5 57.9 0l4.1-4.1c16.5-16.5 16.5-41.4 0-57.9l8.3 8.3c-16.5-16.5-12.4-28.9 12.4-28.9h-12.4c24.8 0 41.4-20.7 41.4-41.4v-4.1c-0.1-24.8-20.7-41.3-41.4-41.3zM673.8 816c-53.8 0-99.2-45.5-99.2-99.2 0-53.8 45.5-99.2 99.2-99.2 53.8 0 99.2 45.5 99.2 99.2 0.1 53.7-45.4 99.2-99.2 99.2z m0 0" p-id="3764"></path></svg>