<?xml version="1.0" standalone="no"?><!DOCTYPE svg PUBLIC "-//W3C//DTD SVG 1.1//EN" "http://www.w3.org/Graphics/SVG/1.1/DTD/svg11.dtd"><svg t="1558430048622" class="icon" style="" viewBox="0 0 1024 1024" version="1.1" xmlns="http://www.w3.org/2000/svg" p-id="2339" xmlns:xlink="http://www.w3.org/1999/xlink" width="128" height="128"><defs><style type="text/css"></style></defs><path d="M193.9 549.8h98.5c20.4 0 37-16.4 37-36.6 0-20.3-16.6-36.6-37-36.6h-98.5c-20.5-0.1-37 16.4-37 36.6 0 20.2 16.5 36.6 37 36.6z m0-207.8h98.5c20.4 0 37-16.5 37-36.6 0-20.3-16.6-36.6-37-36.6h-98.5c-20.5 0-37 16.4-37 36.6 0 20.2 16.5 36.6 37 36.6z m135.5 378.7c0-20.3-16.6-36.6-37-36.6h-98.5c-20.5 0-37 16.5-37 36.6 0 20.2 16.6 36.6 37 36.6h98.5c20.4 0 37-16.3 37-36.6z m484.7-561.9H267.7c-20.5 0-37 16.4-37 36.6V232h61.5c40.8 0 74 32.8 74 73.3s-33 73.3-74 73.3h-61.4v61h61.6c40.8 0 73.9 32.8 73.9 73.3 0 40.4-33 73.3-73.9 73.3h-61.6v61h61.6c40.8 0 73.9 32.8 73.9 73.4 0 40.4-33 73.2-73.9 73.2h-61.6v36.6c0 20.3 16.6 36.6 37 36.6h546.4c28.1 0 51-16.5 51-36.6v-635c-0.1-20.3-22.9-36.6-51.1-36.6z m-93.8 414.6h-96.1v111.1c0 16.1-14 29.1-31.2 29.1-17.3 0-31.2-13-31.2-29.1V573.4h-90.1c-17.2 0-31.2-13-31.2-29.1s14-29.1 31.2-29.1h90.1v-32.3h-90.1c-17.2 0-31.2-13-31.2-29.1s14-29.1 31.2-29.1h47.1l-69-62.5c-12.4-11.2-12.6-29.6-0.6-41.1s31.7-11.8 44.1-0.6l99.7 90.3 99.8-90.2c12.3-11.2 32-11.1 44.1 0.4 12.1 11.5 11.9 29.9-0.4 41.1l-68.6 62.6h52.3c17.3 0 31.2 13 31.2 29.1s-13.9 29.1-31.2 29.1h-95.9v32.3h96.1c17.2 0 31.2 13 31.2 29.1-0.1 16.1-14.1 29.1-31.3 29.1z m0 0" p-id="2340"></path></svg>