<?xml version="1.0" standalone="no"?><!DOCTYPE svg PUBLIC "-//W3C//DTD SVG 1.1//EN" "http://www.w3.org/Graphics/SVG/1.1/DTD/svg11.dtd"><svg t="1558430088045" class="icon" style="" viewBox="0 0 1024 1024" version="1.1" xmlns="http://www.w3.org/2000/svg" p-id="2885" xmlns:xlink="http://www.w3.org/1999/xlink" width="128" height="128"><defs><style type="text/css"></style></defs><path d="M814.7 177.9h-612c-40.8 0-76.2 36.2-76.2 77s35.4 76.2 76.2 76.2h616.6c40.8 0 76.2-35.4 76.2-76.2 0.8-40.8-40-77-80.8-77zM498.3 540.5c0-46.2 35.4-87 87-87h275.6c15.4 0 25.4-15.4 15.4-30.8-15.4-15.4-35.4-25.4-56.2-25.4H202.7c-40.8 0-76.2 35.4-76.2 76.2s35.4 76.2 76.2 76.2h295.6v-9.2z m0 96.3H202.7c-40.8 0-76.2 35.4-76.2 76.2 0 40.8 35.4 76.2 76.2 76.2h295.6V636.8z m0 0" p-id="2886"></path><path d="M855.5 504.4H585.3c-20 0-35.4 15.4-35.4 35.4v275.6c0 20 15.4 35.4 35.4 35.4h275.6c20 0 35.4-15.4 35.4-35.4V540.5c-5.4-20.7-20.8-36.1-40.8-36.1z m-30.8 102.3c-10 50.8-50.8 91.6-107 91.6-50.8 0-97-40.8-107-91.6 0-5.4-5.4-10-5.4-15.4 0-10 5.4-15.4 15.4-15.4s15.4 5.4 15.4 15.4c0 5.4 0 10-5.4 10 5.4 46.2 46.2 76.2 87 76.2 46.2 0 81.6-30.8 87-76.2-5.4-5.4-5.4-10-5.4-10 0-10 5.4-15.4 15.4-15.4s15.4 5.4 15.4 15.4c4.6 4.7 0 10.1-5.4 15.4z m0 0" p-id="2887"></path></svg>