<?xml version="1.0" standalone="no"?><!DOCTYPE svg PUBLIC "-//W3C//DTD SVG 1.1//EN" "http://www.w3.org/Graphics/SVG/1.1/DTD/svg11.dtd"><svg t="1558430036326" class="icon" style="" viewBox="0 0 1024 1024" version="1.1" xmlns="http://www.w3.org/2000/svg" p-id="2119" xmlns:xlink="http://www.w3.org/1999/xlink" width="128" height="128"><defs><style type="text/css"></style></defs><path d="M575.7 502.7l8.3-4.7v-29.5H279.2v68.4h254.4c12.6-12.6 26.7-24 42.1-34.2z m0 0" p-id="2120"></path><path d="M550 821.3H230.4c-11.8 0-19.6 2.1-19.6-4.2V298.4c0-7.5 9.4-13.8 19.6-13.8h6.7l227.6-77.5 205.1 77.5h7.1c10.6 0 19.7 6.7 19.7 13.8v143.1c11.8-2 23.6-2.8 35.4-3.1 2 0 3.5-0.4 5.5-0.4 9.8 0 20 0.8 29.9 2V298.4c-2-44.8-37.7-80.2-82.5-82.1l-218.8-83.4-243 83.4c-44.8 1.6-81 37.3-82.9 82.1v518.8c2.4 47.6 42.8 74.9 90.4 72.9h388.8c-14.9-9.8-28.7-21.6-40.9-34.2-10.8-10.6-20.2-22.4-28.5-34.6z m0 0" p-id="2121"></path><path d="M279.2 658.7h179.2v-68.4H279.2v68.4z m604.9 33l-20-11c-10.2-5.1-14.1-17.7-8.6-27.9 2-3.9 5.1-6.7 8.6-8.6l20-11c10.2-5.1 14.2-17.7 8.6-27.9-0.4-0.4-0.4-0.8-0.8-1.2l-36.9-61c-6.3-10.2-19.7-13.8-30.3-7.9l-20 11c-10.6 6.3-24.4 2.4-30.3-8.3-2-3.1-2.8-6.7-3.1-10.2v-22c-0.4-11.8-10.2-21.2-22-21.2h-73.9c-11.8-0.4-22 9-22.4 21.2v22c-0.4 12.2-11 22-23.2 21.2-3.5 0-7.1-1.2-10.2-3.1l-20-11c-10.6-5.9-24-2.4-30.3 7.9l-36.9 60.9c-5.9 9.8-2.8 22.4 7.1 28.3 0.4 0.4 0.8 0.4 1.2 0.8l20 11c10.2 5.1 14.1 17.7 8.6 27.9-2 3.9-5.1 6.7-8.6 8.6l-20 11c-10.2 5.1-14.2 17.7-8.6 27.9 0 0.4 0.4 0.8 0.4 1.2l36.9 60.9c6.7 10.2 19.7 13.8 30.3 7.9l20-11c10.6-6.3 24.4-2.4 30.3 8.3 2 3.1 2.8 6.7 3.1 10.2v22c0 7.1 3.9 13.4 9.8 17.3 3.5 2.4 7.9 3.9 12.2 3.9H749c11.8 0.4 22-9 22.4-21.2v-22c0.4-12.2 11-22 23.2-21.2 3.5 0 7.1 1.2 10.2 3.1l20 11c10.6 5.9 24 2.4 30.3-7.9l36.9-60.9c5.9-9.8 2.8-22.4-7.1-28.3 0-0.3-0.4-0.3-0.8-0.7z m-135.6 14.9c-21.2 16.1-50.7 16.1-71.9 0-24.4-17.3-30.3-50.7-13-75.1 3.5-5.1 7.9-9.4 13-13 21.2-16.1 50.7-16.1 71.9 0 24.4 17.3 30.3 50.7 13 75.1-3.6 5.2-7.9 9.5-13 13z m-125-325.3v-34.2H279.2v68.4h344.7c-0.4 0-0.4-34.2-0.4-34.2z m0 0" p-id="2122"></path></svg>