<?xml version="1.0" standalone="no"?><!DOCTYPE svg PUBLIC "-//W3C//DTD SVG 1.1//EN" "http://www.w3.org/Graphics/SVG/1.1/DTD/svg11.dtd"><svg t="1558430082501" class="icon" style="" viewBox="0 0 1024 1024" version="1.1" xmlns="http://www.w3.org/2000/svg" p-id="2776" xmlns:xlink="http://www.w3.org/1999/xlink" width="128" height="128"><defs><style type="text/css"></style></defs><path d="M713.9 128.5H309.1c-55.9 0-101.2 43-101.2 95.9v574.5c0 53 45.3 95.9 101.2 95.9h404.8c55.9 0 101.2-42.9 101.2-95.9V224.3c0-52.9-45.4-95.8-101.2-95.8z m-303.6 71.9c0-13.2 11.3-23.9 25.3-23.9h151.8c14 0 25.3 10.7 25.3 23.9s-11.3 23.9-25.3 23.9H435.6c-14 0-25.3-10.7-25.3-23.9z m101.2 646.3c-28 0-50.6-21.6-50.6-48 0-26.5 22.7-48 50.6-48 28 0 50.6 21.5 50.6 48s-22.7 48-50.6 48z m253-152.8c0 5-4.3 9.1-9.6 9.1H268.2c-5.3 0-9.6-4-9.6-9.1V281.3c0-5 4.3-9.1 9.6-9.1h486.7c5.3 0 9.6 4 9.6 9.1v412.6z m0 0" p-id="2777"></path></svg>