<?xml version="1.0" standalone="no"?><!DOCTYPE svg PUBLIC "-//W3C//DTD SVG 1.1//EN" "http://www.w3.org/Graphics/SVG/1.1/DTD/svg11.dtd"><svg t="1558430175674" class="icon" style="" viewBox="0 0 1024 1024" version="1.1" xmlns="http://www.w3.org/2000/svg" p-id="4200" xmlns:xlink="http://www.w3.org/1999/xlink" width="128" height="128"><defs><style type="text/css"></style></defs><path d="M250.4 298.9h525.3c15.2 0 27.4-12.3 27.4-27.4 0-15-12.3-27.4-27.4-27.4H250.4c-15.2 0-27.4 12.3-27.4 27.4 0 15.1 12.4 27.4 27.4 27.4z m69-92.6h387.5c15.2 0 27.4-12.3 27.4-27.4 0-15-12.3-27.4-27.4-27.4H319.4c-15.2 0-27.4 12.3-27.4 27.4 0 15 12.2 27.4 27.4 27.4z m511.5 128H195.4c-38.7 0-70.1 31.4-70.1 70.1V803c0 38.7 31.4 70.1 70.1 70.1h635.4c38.7 0 70.1-31.4 70.1-70.1V404.3c0.1-38.7-31.3-70-70-70zM647.8 710.9c-5.6 2.9-12.5 4.2-18.9 4.2-26.1 0.5-52.2 0.2-78.2 0.2h-12.5v18.2c0 13.9 0.2 27.7 0 41.6-0.2 16.2-9.9 26.4-24.5 26.2-13.9-0.3-23.7-10.7-23.7-26.1-0.2-19.4 0-38.9 0-59.2-4.2-0.2-7.7-0.5-11.2-0.5-27 0-54.1 0.2-81.3-0.2-17.6-0.2-28.2-9.1-28.6-23.4-0.3-12 7.2-21.8 19-24.2 4.5-1 9.1-1.1 13.8-1.1 29-0.2 57.9 0 88 0V637h-95.8c-10.9 0-19-4.8-23.2-15.2-3.7-9.1-2.6-18.4 4.8-24.5 5.4-4.5 13.3-7.4 20.3-7.8 17.1-1.1 34.2-0.3 51.5-0.3h10.9c-4-7.4-7.2-13.4-10.6-19.4-18.6-33.1-37.3-66.1-55.7-99.2-7.5-13.6-3.8-27 8.6-34.2 12-6.9 25.8-2.4 33.6 10.9 1.1 1.9 2.2 4 3.4 6.1l70.6 124.8c2.1 3.7 4.3 7.4 7.5 12.6 2.9-4 5.3-6.9 7-10.1 25.1-44.5 50.2-89 75.5-133.4 5.9-10.6 15.2-15.4 25.1-13.8 10.7 1.8 19.8 9.4 20.3 20 0.3 6.4-1.8 13.8-5 19.5-19.2 35-38.9 69.6-58.4 104.5-1.9 3.4-3.7 6.9-6.2 11.7 20.5 0 39.4-0.2 58.4 0 14.6 0.2 24 7.2 26.2 19.2 2.9 15.7-7.7 28.5-24.6 28.6-27.7 0.3-55.5 0.2-83.2 0.2H539V667h29c21.4 0 42.9-0.2 64.3 0.2 13.4 0.2 22.7 6.9 25.8 17.6 2.9 9.5-1 21.3-10.3 26.1z m0 0" p-id="4201"></path></svg>