<?xml version="1.0" standalone="no"?><!DOCTYPE svg PUBLIC "-//W3C//DTD SVG 1.1//EN" "http://www.w3.org/Graphics/SVG/1.1/DTD/svg11.dtd"><svg t="1558430162977" class="icon" style="" viewBox="0 0 1024 1024" version="1.1" xmlns="http://www.w3.org/2000/svg" p-id="3981" xmlns:xlink="http://www.w3.org/1999/xlink" width="128" height="128"><defs><style type="text/css"></style></defs><path d="M592.8 401.9l208.1-250H620.1L513.1 296 406.8 151.9H225.1l205.2 250v28.9l-205.8-0.6v68.6l205.8 0.4v55.9H227v59.2h203.3v116.5h162.5V614.2H782V555H592.8v-55.9h195v-68.4h-195v-28.8z m0 0" p-id="3982"></path><path d="M804.9 308.2H692v42.5h112.9c26.6 0.2 48.1 21.8 48.1 48.4v382.4c0 26.8-21.6 48.6-48.1 48.6h-586c-26.6-0.2-48.1-21.8-48.1-48.4V399.3c0-26.7 21.6-48.6 48.1-48.6h112.8v-42.5H218.9c-49.8 0.3-90.1 40.7-90.1 90.6V782c0 49.9 40.3 90.3 90.1 90.6h586c49.8 0 90.1-40.7 90.1-91.1V399.3c0-50.3-40.4-91.1-90.1-91.1z m0 0" p-id="3983"></path></svg>