<?xml version="1.0" standalone="no"?><!DOCTYPE svg PUBLIC "-//W3C//DTD SVG 1.1//EN" "http://www.w3.org/Graphics/SVG/1.1/DTD/svg11.dtd"><svg t="1558430144307" class="icon" style="" viewBox="0 0 1024 1024" version="1.1" xmlns="http://www.w3.org/2000/svg" p-id="3651" xmlns:xlink="http://www.w3.org/1999/xlink" width="128" height="128"><defs><style type="text/css"></style></defs><path d="M257.6 369.4c0 13.2 11.2 24.4 24.4 24.4h359.4c13.2 0 24.4-11.2 24.4-24.4S654.6 345 641.4 345H282c-13.4 0.2-24.2 11-24.4 24.4z m121.1-155.8h167c19.3 0 35.6-19.3 35.6-41.7 0-22.4-16.3-41.7-36.7-41.7h-166c-20.3 0-36.6 19.4-36.6 41.7 0.1 22.4 16.4 41.7 36.7 41.7z m421.9 36.7c0-55-33.6-96.7-95.8-96.7H657c-13.2 0-28.5 8.1-28.5 21.3 0 13.3 15.2 26.5 28.5 26.5h47.8c28.5 0 47.9 19.3 47.9 47.8v51.4l47.8-46.7 0.1-3.6z m20 0" p-id="3652"></path><path d="M752.8 800c0 28.5-19.4 47.8-47.9 47.8H229.7c-28.5 0-60-19.3-60-47.8V249.3c0-28.5 19.3-47.8 47.8-47.8h60c13.2 0 18.4-13.2 18.4-26.5 0-13.2-5.1-21.3-18.4-21.3h-60c-67.2-0.1-95.7 41.7-95.7 96.7V795c0 59 55.6 100.7 120.7 100.7h457.2c65.1 0 100.8-34.6 100.8-100.7V520.1l-47.8 47.7 0.1 232.2z m0 0" p-id="3653"></path><path d="M277.1 474.7l177 177 370.2-363.9 76.4 76.4-449.3 443.1-246.7-246.7 72.4-85.9z m0 0" p-id="3654"></path></svg>