<?xml version="1.0" standalone="no"?><!DOCTYPE svg PUBLIC "-//W3C//DTD SVG 1.1//EN" "http://www.w3.org/Graphics/SVG/1.1/DTD/svg11.dtd"><svg t="1558430130892" class="icon" style="" viewBox="0 0 1024 1024" version="1.1" xmlns="http://www.w3.org/2000/svg" p-id="3541" xmlns:xlink="http://www.w3.org/1999/xlink" width="128" height="128"><defs><style type="text/css"></style></defs><path d="M607.3 235.9H169.1c-23.3 0-41.1 17.8-41.1 41.1v273.9c0 23.3 17.8 41.1 41.1 41.1h438.2c23.3 0 41.1-17.8 41.1-41.1V277c-0.1-23.3-17.9-41.1-41.1-41.1z m-113.7 189l-90.4 69.8c-8.2 6.8-21.9 0-21.9-11v-24.6c0-8.2-5.5-13.7-13.7-13.7h-75.3c-6.8 0-13.7-5.5-13.7-13.7v-41.1c0-8.2 5.5-13.7 13.7-13.7h75.3c8.2 0 13.7-5.5 13.7-13.7V344c0-11 12.3-17.8 21.9-11l90.4 69.8c6.9 5.6 6.9 16.6 0 22.1z m0 0M681.2 678.2c9.6-23.3 28.8-41.1 52-49.3 16.4-5.5 34.2-5.5 50.7 0 24.6 8.2 43.8 26 52 49.3 1.4 5.5 2.7 11 4.1 15.1 1.4 4.1 1.4 9.6 1.4 13.7v1.4c-1.4 45.2-37 80.8-82.2 80.8S677 753.6 677 708.4V707c0-4.1 0-9.6 1.4-13.7 0.1-5.5 1.4-11 2.8-15.1z m43.8 31.5c1.4 17.8 16.4 32.9 34.2 32.9 17.8 0 32.9-15.1 34.2-32.9v-1.4c0-5.5-1.4-9.6-2.7-13.7-2.7-6.8-8.2-12.3-13.7-15.1-5.5-2.7-11-5.5-17.8-5.5-6.8 0-12.3 1.4-17.8 5.5s-11 9.6-13.7 15.1c-1.3 4.1-2.7 9.6-2.7 15.1-1.3-1.4-1.3-1.4 0 0z m0 0" p-id="3542"></path><path d="M388.2 628.9c-5.5-4.1-11-8.2-17.8-12.3h299.9c2.7 0 4.1-1.4 6.8-2.7v-1.4h1.4c1.4-1.4 2.7-4.1 2.7-6.8V348.2c2.7-2.7 6.8-5.5 12.3-5.5h126c4.1 0 6.8 1.4 9.6 2.7 2.7 1.4 63 49.3 63 139.7v108.2c0 4.1 0 8.2 2.7 12.3 1.4 2.7 1.4 4.1 1.4 6.8v80.8c0 8.2-6.8 15.1-15.1 15.1h-17.8v-1.4c0-4.1 0-9.6-1.4-13.7 0-5.5-1.4-11-2.7-15.1-5.5-19.2-16.4-35.6-31.5-49.3-6.8-6.8-16.4-12.3-24.6-15.1-13.7-5.5-27.4-9.6-42.4-9.6-6.8 0-13.7 1.4-20.5 2.7-6.8 1.4-15.1 4.1-20.5 6.8-9.6 4.1-17.8 9.6-24.6 15.1h1.4-1.4c-15.1 12.3-26 30.1-31.5 49.3-1.4 5.5-2.7 11-2.7 15.1s-1.4 9.6-1.4 13.7v1.4H423.8v-1.4c0-4.1 0-9.6-1.4-13.7-1.4-5.5-1.4-11-2.7-15.1-5.5-19-16.5-36.8-31.5-49.1z m320.4-163h134.2c8.2 0 15.1-8.2 13.7-16.4-8.2-35.6-27.4-60.2-38.3-71.2-2.7-2.7-5.5-4.1-9.6-4.1h-86.3c-8.2 0-13.7 5.5-13.7 13.7v78zM243 678.2c9.6-23.3 28.8-41.1 52-49.3 16.4-5.5 34.2-5.5 50.7 0 23.3 8.2 42.4 26 52 49.3 1.4 5.5 2.7 11 4.1 15.1 1.4 4.1 1.4 9.6 1.4 13.7v1.4c-1.4 45.2-37 80.8-82.2 80.8s-82.2-35.6-82.2-80.8V707c0-4.1 0-9.6 1.4-13.7 0.1-5.5 1.5-11 2.8-15.1z m43.9 31.5c1.4 17.8 16.4 32.9 34.2 32.9 17.8 0 32.9-15.1 34.2-32.9v-1.4c0-5.5-1.4-9.6-2.7-13.7-2.7-6.8-8.2-12.3-13.7-15.1-5.5-2.7-11-5.5-17.8-5.5-6.8 0-12.3 1.4-17.8 5.5s-11 9.6-13.7 15.1c-1.4 4.1-2.7 9.6-2.7 15.1-1.4-1.4 0-1.4 0 0z m-6.9-97.2c-1.4 0-1.4 0 0 0-4.1 1.4-5.5 2.7-8.2 4.1-6.8 4.1-12.3 8.2-17.8 12.3-15.1 12.3-26 30.1-31.5 49.3-1.4 5.5-2.7 11-2.7 15.1s-1.4 9.6-1.4 13.7v1.4h-34.2c-8.2 0-15.1-6.8-15.1-15.1v-67.1c0-8.2 5.5-13.7 13.7-13.7H280z m0 0" p-id="3543"></path></svg>