<?xml version="1.0" standalone="no"?><!DOCTYPE svg PUBLIC "-//W3C//DTD SVG 1.1//EN" "http://www.w3.org/Graphics/SVG/1.1/DTD/svg11.dtd"><svg t="1558430042604" class="icon" style="" viewBox="0 0 1024 1024" version="1.1" xmlns="http://www.w3.org/2000/svg" p-id="2230" xmlns:xlink="http://www.w3.org/1999/xlink" width="128" height="128"><defs><style type="text/css"></style></defs><path d="M415.7 678.1c0-43.1 9.5-83.9 28.7-119.8-176.7 12-315.2 158.1-315.2 335.4H528c-70.8-49-112.8-129.6-112.3-215.6z m47.7-167.7h12c38.1-45.3 90.2-76.5 148.1-88.6 19.1-28.7 28.6-64.6 28.6-100.6 0-105.4-85.9-191.6-191-191.6-105 0-191 86.2-191 191.6 2.4 102.9 88.3 189.2 193.3 189.2z m398.8 170l-4.8-2.4-2.4-2.4s4.8-2.4 7.1-4.8c19.1-9.6 28.7-28.8 26.3-47.9-2.4-21.6-7.2-38.3-16.7-52.7-14.3-24-35.8-31.1-64.5-21.6-2.4 0-4.8 2.4-7.1 2.4v-4.8c7.1-19.2 2.4-40.7-12-57.5-7.9-8.6-17.7-15.2-28.6-19.2-10.6-4.4-21.9-6.9-33.4-7.2-31 0-43 26.4-47.7 36L676 496s0-2.4-2.4-2.4c0-2.4-2.4-4.8-2.4-7.2-9.5-14.3-23.9-24-40.6-24h-7.1c-12 2.4-23.9 2.4-35.8 9.6-33.4 16.8-45.4 38.3-38.2 71.8v4.8c-2.4 0-4.8 0-7.1-2.4-21.5-7.2-40.6 0-54.9 16.8-7.2 9.6-14.3 21.5-16.7 38.3-9.6 33.6 0 57.5 31 71.9 0 0-2.4 2.4-4.8 2.4-19.1 7.2-28.6 24-31 45.5 0 26.3 7.1 50.3 26.3 67.1 12 12 26.2 16.8 45.4 14.4 2.4 0 4.8 0 7.2-2.4h2.4v2.4c-7.2 21.5-2.4 40.7 14.3 57.5 12 12 26.3 19.2 45.4 24 9.5 2.4 16.7 2.4 21.5 2.4 28.7 0 43-24 47.8-33.5 0-2.4 2.4-2.4 2.4-2.4l2.4 2.4 2.4 2.4c0 2.4 2.4 4.8 4.8 7.2 12 19.1 28.7 26.3 50.2 24 16.7-2.4 31-7.2 45.4-16.8 23.9-16.8 31.1-40.7 21.5-67.1h7.2c28.6 7.2 50.1-2.4 66.8-28.8 7.2-12 12-26.3 14.3-43.1-0.4-19.2-12.4-38.4-31.5-50.4z m-54.9 2.4c2.4 14.4 9.6 28.8 23.9 36 2.4 0 2.4 2.4 4.8 2.4h2.4c4.8 2.4 4.8 2.4 4.8 7.2 0 9.6-2.4 14.4-7.1 21.6-4.8 7.1-7.2 7.1-9.6 7.1h-7.1c-2.4 0-4.8 0-7.1-2.4h-2.4c-21.5-2.4-38.2 4.8-47.8 19.1-9.6 14.4-9.6 31.2-4.8 47.9 2.4 4.8 2.4 4.8-2.4 9.6-7.2 4.8-16.7 9.6-28.7 9.6l-2.4-2.4s0-2.4-2.4-4.8c0-2.4-2.4-2.4-2.4-2.4-8.3-16.1-24.9-26.3-43-26.3-9.5 0-28.6 2.4-43 26.3-2.1 3.4-4.5 6.6-7.1 9.6-2.4 0-4.8 0-9.6-2.4-9.9-2.4-18.9-7.3-26.2-14.4v-2.4c0-2.4 0-2.4 2.4-7.2 4.8-14.3 4.8-28.7-4.8-40.7-7.2-12-21.5-19.1-35.8-19.1h-7.1c-4.8 0-9.6 0-14.3 2.4h-7.1c-9.6-9.6-12-21.5-12-35.9 12-4.8 19.1-12 26.2-21.6 7.2-12 9.6-24 7.2-38.3-2.4-14.4-12-26.3-26.3-33.5-9.5-4.8-9.5-4.8-7.1-16.8 2.4-9.6 4.8-14.4 9.5-19.2l2.4-2.4h2.3c14.3 4.8 23.9 4.8 33.4 2.4 26.3-7.2 40.6-31.1 35.8-62.3-2.4-7.2 0-9.6 0-9.6s2.4-2.4 12-7.1c7.1-2.4 11.9-4.8 21.5-4.8l2.4 2.4c2.4 2.4 2.4 4.8 4.8 7.2 9.6 14.4 26.3 24 43 24 17.6 0.1 33.5-10.3 40.6-26.3 4.8-9.6 7.1-9.6 7.1-9.6 4.8 0 14.3 4.8 19.1 4.8 4.8 2.4 7.1 4.8 12 7.2 2.4 2.4 2.4 2.4 2.4 4.8-4.3 10.7-5.1 22.4-2.4 33.5 4.8 24 28.6 40.7 54.9 35.9 4.8 0 9.5-2.4 14.3-4.8 2.4 0 4.8 0 4.8-2.4 0 0 2.4 0 4.8 4.8 4.8 7.2 7.1 16.8 9.5 28.7l-4.8 12c-7.1 3.8-13.5 8.6-19.1 14.4-11.5 9.1-17 23.8-14.4 38.2zM678.4 582.2c-52.8 0.2-95.5 43-95.5 95.8 0 52.7 43 95.8 95.5 95.8 52.8-0.2 95.4-43 95.5-95.8-0.1-52.7-42.7-95.5-95.5-95.8z m0 143.8c-26.3 0-47.8-21.6-47.8-47.9 0-26.3 21.5-47.9 47.8-47.9 26.2 0 47.7 21.6 47.7 47.9 0 26.3-21.5 47.9-47.7 47.9z m0 0" p-id="2231"></path></svg>