<?xml version="1.0" standalone="no"?><!DOCTYPE svg PUBLIC "-//W3C//DTD SVG 1.1//EN" "http://www.w3.org/Graphics/SVG/1.1/DTD/svg11.dtd"><svg t="1558430101570" class="icon" style="" viewBox="0 0 1024 1024" version="1.1" xmlns="http://www.w3.org/2000/svg" p-id="3104" xmlns:xlink="http://www.w3.org/1999/xlink" width="128" height="128"><defs><style type="text/css"></style></defs><path d="M206.6 195.6h609.9c10.7-0.2 19.3-9.2 19.4-20.3 0-10.9-8.7-20.3-19.4-20.3H206.6c-10.7 0.2-19.3 9.2-19.4 20.3 0.1 11.2 8.7 20.2 19.4 20.3zM231 797V608c-0.3-14.8-12-26.5-26.2-26.2-14.1-0.3-25.8 11.4-26.1 26.2v215.2c0.3 14.8 12 26.5 26.2 26.2h301.2c-9.8-16.4-17.7-34-23.5-52.4H231z m472.2-403.2c0 53.2 43 96.3 96.1 96.3 53 0 96.1-43.1 96.1-96.2 0.1-14.8-3.6-28.7-9.5-41.2l-0.1-0.1-53.2-136.7h-643l-53.2 136.7c-6.2 12.8-9.4 26.9-9.5 41.2 0 53.3 43 96.3 96.1 96.4 53 0 96-43.1 96-96.3 0 53.2 43 96.3 96.1 96.3 53 0 96-43 96-96.2 0 53.1 43.1 96.2 96.1 96.2 53-0.1 96-43.2 96-96.4z m118.6 245.1c-11.1-19.8-7.5-43.9 6.7-59.9-19.5-19.4-43.2-33.8-69.1-41.7-6.7 21.4-25.8 35.8-47.3 35.6-21.5 0-40.5-14.6-47-36.1-25.9 7.7-49.7 21.8-69.4 41 14 16.1 17.4 40.3 6.2 60-11.2 19.7-33.2 28.7-53.8 23.9-3.3 13.5-5 27.3-5.2 41.3-0.1 14.2 1.7 28 4.8 41.2 20.6-4.6 42.5 4.6 53.5 24.4 11.1 19.8 7.5 43.9-6.7 59.9 19.5 19.5 43.2 33.8 69.1 41.7 6.7-21.4 25.8-35.8 47.3-35.6 21.5 0 40.5 14.6 47 36.1 25.9-7.7 49.7-21.8 69.4-41-14-16.1-17.4-40.3-6.2-60 11.2-19.7 33.2-28.7 53.8-23.9 3.3-13.5 5-27.3 5.2-41.3 0.1-14.2-1.7-28-4.8-41.3-20.6 4.6-42.4-4.5-53.5-24.3zM711.4 770.7c-35.8-0.1-64.7-30.2-64.6-67.2 0.1-36.9 29.4-66.8 65.2-66.6 35.8 0.1 64.7 30.2 64.6 67.2-0.3 37-29.5 66.7-65.2 66.6z m0 0" p-id="3105"></path></svg>