<?xml version="1.0" standalone="no"?><!DOCTYPE svg PUBLIC "-//W3C//DTD SVG 1.1//EN" "http://www.w3.org/Graphics/SVG/1.1/DTD/svg11.dtd"><svg t="1558430094253" class="icon" style="" viewBox="0 0 1024 1024" version="1.1" xmlns="http://www.w3.org/2000/svg" p-id="2995" xmlns:xlink="http://www.w3.org/1999/xlink" width="128" height="128"><defs><style type="text/css"></style></defs><path d="M422.7 558.3H199.5c-23.9 1.6-43 20.7-44.6 44.6V826c1.6 23.9 20.7 43 44.6 44.6h223.1c23.9-1.6 43-20.7 44.6-44.6V602.9c-1.5-23.9-20.6-43-44.5-44.6z m0-401.7H199.5c-23.9 1.6-43 20.7-44.6 44.6v223.1c1.6 23.9 20.7 43 44.6 44.6h223.1c23.9-1.6 43-20.7 44.6-44.6v-223c-1.5-24-20.6-43.1-44.5-44.7z m401.7 401.7H601.3c-23.9 1.6-43 20.7-44.6 44.6V826c1.6 23.9 20.7 43 44.6 44.6h223.2c23.9-1.6 43-20.7 44.6-44.6V602.9c-1.7-23.9-20.7-43-44.7-44.6z m-133.9-98.2c13.6 13.4 35.5 13.4 49.1 0l120.5-125c13.4-13.6 13.4-35.5 0-49.1l-125-120.5c-13.6-13.4-35.5-13.4-49.1 0l-120.5 125c-12.3 10.9-13.5 29.8-2.6 42.1 0.8 0.9 1.7 1.8 2.6 2.6l125 124.9z m0 0" p-id="2996"></path></svg>