<?xml version="1.0" standalone="no"?><!DOCTYPE svg PUBLIC "-//W3C//DTD SVG 1.1//EN" "http://www.w3.org/Graphics/SVG/1.1/DTD/svg11.dtd"><svg t="1558430064271" class="icon" style="" viewBox="0 0 1024 1024" version="1.1" xmlns="http://www.w3.org/2000/svg" p-id="2558" xmlns:xlink="http://www.w3.org/1999/xlink" width="128" height="128"><defs><style type="text/css"></style></defs><path d="M873.7 611.6c1 6.3 0.8 13.8-0.8 22.7-1.5 8.8-4.2 17.9-7.8 27-3.6 9.1-8.1 17.3-13.3 24.6-5.2 7.3-10.9 12.5-17.2 15.7-6.3 3.1-11.7 4.7-16.4 4.7-4.7 0-9.9-1-15.7-3.1-5.2-1.5-11.7-3-19.6-4.3-7.8-1.3-15.8-1.6-23.8-0.8-8.1 0.8-16.1 2.5-24.2 5.1-8.1 2.6-15 7.1-20.8 13.3-12.5 13.1-19.8 27.9-21.8 44.6-2 16.7 0.3 32.6 7 47.7 5.2 10.4 4.5 20.9-2.3 31.3-3.1 4.2-8.1 8.5-14.9 12.9-6.7 4.5-14.2 8.5-22.3 12.2-8.1 3.6-16.6 6.6-25.4 8.6-8.9 2.1-16.7 3.1-23.5 3.1-4.7 0-9.1-1.8-13.3-5.5-4.2-3.6-7-7.6-8.6-11.7h-0.8c-5.7-16.2-15.5-30.1-29.4-41.8-13.8-11.7-29.9-17.6-48.1-17.6-17.8 0-33.8 5.9-48.1 17.6-14.3 11.7-24.4 25.4-30.1 41-2.6 6.3-6.5 10.8-11.7 13.7-5.2 2.9-10.9 4.3-17.2 4.3-7.3 0-15.5-1.3-24.6-3.9-9.3-2.7-18.5-6-27.4-9.8-9.1-3.9-17.3-8.5-24.7-13.7-7.3-5.2-12.7-10.4-16.4-15.7-2.6-3.6-4.1-7.9-4.3-12.9-0.3-4.9 1.7-11.9 5.9-20.7 5.7-12 8-25.7 6.6-41.1-1.3-15.4-8-29.5-19.9-42.7-7.3-7.8-16.2-12.9-26.6-15.2-10.4-2.3-20.3-3.2-29.7-2.7-10.9 0.5-22.2 2.6-33.6 6.3-7.3 2-14.6 1.5-21.9-1.6-5.7-2.1-11.1-6.9-16-14.4-5-7.6-9.4-15.9-13.3-25-3.9-9.1-6.9-18.5-9-28.2-2.1-9.7-2.6-17.6-1.5-23.8 1.6-11.5 6.8-18.8 15.7-21.9 15.7-6.3 29.7-16.5 42.2-30.9 12.5-14.3 18.8-30.4 18.8-48.1 0-18.3-6.2-34.1-18.8-47.7-12.5-13.5-26.6-23.4-42.2-29.7-4.7-1.5-8.6-5.3-11.7-11.3-3.1-6-4.7-12.2-4.7-18.3 0-6.8 1-14.3 3.1-22.7 2.1-8.4 4.8-16.4 8.2-24.3 3.4-7.8 7.3-15 11.7-21.5 4.4-6.5 9.2-11.3 14.5-14.4 4.1-2.6 8.2-3.6 12.1-3.1 3.9 0.5 8.2 1.5 12.9 3.1 15.6 6.2 31.9 8.2 48.9 5.9 16.9-2.4 32-9.7 45-22.3 6.3-6.2 10.8-13.9 13.7-23.1 2.9-9.1 4.7-18.1 5.5-27 0.8-8.8 0.8-16.9 0-24.2-0.8-7.3-1.4-12.5-2-15.7-1-3.1-2-6.8-2.7-11-0.8-4.1-0.4-7.8 1.2-10.9 3.1-7.3 8.7-13.7 16.8-19.2 8.1-5.5 16.8-10 26.2-13.7 9.4-3.6 18.5-6.4 27.4-8.2 8.8-1.8 15.9-2.7 21.1-2.7 6.8 0 12.1 2.2 16 6.6 3.9 4.5 6.6 9 8.2 13.7 5.7 14.1 15.2 26.5 28.2 37.1 13.1 10.6 28.4 16 46.2 16 18.3 0 34.4-5.1 48.5-15.2 14.1-10.2 24-23.1 29.7-38.7 2.1-4.1 5.4-8.4 9.8-12.9 4.4-4.4 9-6.6 13.6-6.6 7.3 0 15.3 1 23.8 3.1 8.6 2.1 17.1 5 25.4 8.6 8.3 3.6 16.1 8.3 23.1 14.1 7 5.7 12.6 12 16.8 18.8 2.6 4.1 3.4 8.7 2.4 13.7s-2.1 8.5-3.1 10.6c-6.7 15.1-8.8 31-6.2 47.7 2.6 16.7 10.2 31.3 22.7 43.8 12.5 12.5 27.9 19.4 46.2 20.8 18.3 1.3 35.2-1.7 50.8-9 4.1-2.6 9.2-3.6 15.2-3.1s11.1 2.9 15.2 7c7.8 7.3 14.7 18.4 20.7 33.2 6 14.9 10.1 29.9 12.2 45 1 8.9-0.4 15.8-4.3 20.8s-8 8.2-12.1 9.8c-16.2 5.7-30 15.8-41.5 30.1s-17.2 30.6-17.2 48.9c0 17.8 4.8 33.2 14.4 46.5 9.6 13.3 22.3 22.8 38 28.5 3.6 2.1 6.7 4.2 9.4 6.3 5.5 4.2 9.4 10.2 11.5 17.5zM510.1 682c23.4 0 45.6-4.5 66.5-13.3 20.8-8.8 39-21.1 54.3-36.8 15.4-15.7 27.5-33.7 36.4-54.3 8.8-20.6 13.3-42.6 13.3-66.1 0-23.4-4.5-45.5-13.3-66.1-8.9-20.6-21-38.6-36.4-54-15.4-15.4-33.5-27.5-54.3-36.3-20.8-8.9-43-13.3-66.5-13.3s-45.5 4.4-66.1 13.3c-20.6 8.8-38.6 21-53.9 36.4-15.4 15.4-27.5 33.4-36.4 54-8.8 20.6-13.3 42.6-13.3 66 0 23.5 4.5 45.5 13.3 66.1 8.9 20.6 21 38.7 36.4 54.3 15.4 15.7 33.3 27.9 53.9 36.8 20.5 8.9 42.6 13.3 66.1 13.3z m0 0" p-id="2559"></path></svg>