<?xml version="1.0" standalone="no"?><!DOCTYPE svg PUBLIC "-//W3C//DTD SVG 1.1//EN" "http://www.w3.org/Graphics/SVG/1.1/DTD/svg11.dtd"><svg t="1558430075014" class="icon" style="" viewBox="0 0 1024 1024" version="1.1" xmlns="http://www.w3.org/2000/svg" p-id="2667" xmlns:xlink="http://www.w3.org/1999/xlink" width="128" height="128"><defs><style type="text/css"></style></defs><path d="M760.2 165.5H265.8c-54 0-99.3 45.3-99.3 99.3v494.4c0 54 45.3 99.3 99.3 99.3h494.4c54 0 99.3-45.3 99.3-99.3V262.7c0-54-45.3-97.2-99.3-97.2z m-375.7 95c47.5 0 86.4 38.9 86.4 88.5 0 47.5-38.9 88.5-86.4 88.5s-86.4-38.9-86.4-88.5c-2.1-47.5 36.8-88.5 86.4-88.5zM278.8 744.1c-6.5 0-13-2.2-17.3-6.5-10.8-10.8-13-28.1-2.2-38.9l127.4-164.1c8.6-10.8 25.9-13 36.7-4.3l75.6 82 185.7-228.8c8.6-13 58.3-69.1 88.5-4.3V744H278.8z m0 0" p-id="2668"></path></svg>