<?xml version="1.0" standalone="no"?><!DOCTYPE svg PUBLIC "-//W3C//DTD SVG 1.1//EN" "http://www.w3.org/Graphics/SVG/1.1/DTD/svg11.dtd"><svg t="1558430117389" class="icon" style="" viewBox="0 0 1024 1024" version="1.1" xmlns="http://www.w3.org/2000/svg" p-id="3323" xmlns:xlink="http://www.w3.org/1999/xlink" width="128" height="128"><defs><style type="text/css"></style></defs><path d="M268.1 602.9V242.3h-45.5l-79 43.6 12.1 40.7 59.1-33.5h0.9v309.8h52.4z m327.3-46H454.5v-1l28.8-30.2c60.9-63.2 104.6-118.3 104.6-184.3 1.8-28.7-8.6-56.7-28.5-76.9-19.9-20.1-47.3-30.4-75.1-28-34.2-0.2-67.5 11.7-94.4 33.5l16.3 39.8c18.8-16.8 42.5-26.8 67.4-28.3 17-1.3 33.6 5.3 45.3 18 11.7 12.7 17.3 30.2 15.1 47.6 0 54.1-40.9 103.9-114.8 181.9l-36.7 39.7v34h212.9v-45.8z m213.5-149.4c36.3-11.2 61.5-45.3 62.3-84.3 0-46-32.1-86.7-97.6-86.7-31.2-0.3-61.7 8.9-87.9 26.3l13.5 39.8c18.4-13.1 40-20.6 62.3-21.5 14.1-2 28.3 2.5 38.8 12.3 10.6 9.8 16.4 23.9 16 38.5 0 39.7-39.5 58.4-69.7 58.4h-22.8V430h23.7c41.4 0 79.5 21.5 79.5 68 0.3 18.7-7.2 36.6-20.7 49.2-13.4 12.6-31.5 18.6-49.5 16.4-24.5-0.4-48.4-7.5-69.3-20.6l-13.9 42.6c26 15.3 55.6 23.1 85.5 22.5 79.5 0 123.2-49.3 123.2-108.2 1-45.1-30.3-84-73.5-91.5v-0.9zM135.2 790.2v-58.1h754.2v58.1H135.2z m45.4-111.6" p-id="3324"></path></svg>