<?xml version="1.0" standalone="no"?><!DOCTYPE svg PUBLIC "-//W3C//DTD SVG 1.1//EN" "http://www.w3.org/Graphics/SVG/1.1/DTD/svg11.dtd"><svg t="1558430056234" class="icon" style="" viewBox="0 0 1024 1024" version="1.1" xmlns="http://www.w3.org/2000/svg" p-id="2448" xmlns:xlink="http://www.w3.org/1999/xlink" width="128" height="128"><defs><style type="text/css"></style></defs><path d="M183.8 372.9h67.8c18.7 0 33.8-15.4 33.8-34.3 0-19-15.1-34.3-33.8-34.3h-67.8c-18.7 0-33.8 15.4-33.8 34.3s15.1 34.3 33.8 34.3z m0 171.3h67.8c18.7 0 33.8-15.4 33.8-34.3 0-19-15.1-34.3-33.8-34.3h-67.8c-18.7 0-33.8 15.4-33.8 34.3 0 19 15.1 34.3 33.8 34.3z m101.7 137.1c0-19-15.1-34.3-33.8-34.3h-67.8c-18.7 0-33.8 15.4-33.8 34.3 0 19 15.1 34.3 33.8 34.3h67.8c18.6 0 33.8-15.5 33.8-34.3z m0 0" p-id="2449"></path><path d="M838.9 150.4H251.6c-18.7 0-33.8 15.4-33.8 34.3V270h33.8c37.4 0 67.7 30.7 67.7 68.5 0 37.9-30.3 68.5-67.7 68.5h-33.8v34.3h33.8c37.4 0 67.7 30.7 67.7 68.5 0 37.9-30.3 68.5-67.7 68.5h-33.8v34.3h33.8c37.4 0 67.7 30.7 67.7 68.5 0 37.9-30.3 68.5-67.7 68.5h-33.8v89.8c0 19 15.1 34.3 33.8 34.3h587.2c18.7 0 33.8-15.4 33.8-34.3V184.8c0.1-19.1-15-34.4-33.7-34.4zM596.3 518.8c-57.9 0-104.8-46.9-104.8-104.8s46.9-104.8 104.8-104.8S701.1 356.1 701.1 414c0 57.8-47 104.8-104.8 104.8 106 0 191.9 85.9 191.9 191.9H404.4c0-106 85.9-191.9 191.9-191.9z m0 0" p-id="2450"></path></svg>